<svg width="1920" height="1080" viewBox="0 0 1920 1080" fill="none" xmlns="http://www.w3.org/2000/svg">
  <defs>
    <linearGradient id="bg" x1="180" y1="80" x2="1740" y2="1010" gradientUnits="userSpaceOnUse">
      <stop stop-color="#071A3A"/>
      <stop offset="0.5" stop-color="#0B3A78"/>
      <stop offset="1" stop-color="#0A66C2"/>
    </linearGradient>
    <radialGradient id="glowA" cx="0" cy="0" r="1" gradientUnits="userSpaceOnUse" gradientTransform="translate(1450 260) rotate(145) scale(690 500)">
      <stop stop-color="#54B8FF" stop-opacity="0.42"/>
      <stop offset="1" stop-color="#54B8FF" stop-opacity="0"/>
    </radialGradient>
    <radialGradient id="glowB" cx="0" cy="0" r="1" gradientUnits="userSpaceOnUse" gradientTransform="translate(320 930) rotate(-35) scale(610 420)">
      <stop stop-color="#2F80ED" stop-opacity="0.32"/>
      <stop offset="1" stop-color="#2F80ED" stop-opacity="0"/>
    </radialGradient>
    <linearGradient id="phone" x1="1050" y1="170" x2="1540" y2="920" gradientUnits="userSpaceOnUse">
      <stop stop-color="#EAF7FF" stop-opacity="0.28"/>
      <stop offset="1" stop-color="#8CCBFF" stop-opacity="0.06"/>
    </linearGradient>
    <filter id="blur" x="-300" y="-300" width="2520" height="1680" filterUnits="userSpaceOnUse">
      <feGaussianBlur stdDeviation="30"/>
    </filter>
    <pattern id="dots" width="44" height="44" patternUnits="userSpaceOnUse">
      <circle cx="2" cy="2" r="2" fill="#FFFFFF" fill-opacity="0.08"/>
    </pattern>
  </defs>

  <rect width="1920" height="1080" fill="url(#bg)"/>
  <rect width="1920" height="1080" fill="url(#glowA)"/>
  <rect width="1920" height="1080" fill="url(#glowB)"/>
  <rect width="1920" height="1080" fill="url(#dots)"/>

  <g opacity="0.24" filter="url(#blur)">
    <circle cx="1540" cy="180" r="180" fill="#58C7FF"/>
    <circle cx="1840" cy="780" r="230" fill="#1E8BFF"/>
    <circle cx="220" cy="150" r="190" fill="#3D7FFF"/>
  </g>

  <g opacity="0.85">
    <rect x="1125" y="165" width="430" height="750" rx="72" fill="url(#phone)" stroke="#BFE6FF" stroke-opacity="0.34" stroke-width="4"/>
    <rect x="1163" y="215" width="354" height="640" rx="48" fill="#071A3A" fill-opacity="0.24" stroke="#D5F0FF" stroke-opacity="0.18" stroke-width="2"/>
    <rect x="1275" y="187" width="130" height="16" rx="8" fill="#D6F2FF" fill-opacity="0.35"/>
    <circle cx="1340" cy="883" r="16" fill="#D6F2FF" fill-opacity="0.28"/>

    <path d="M1240 473C1291 417 1382 396 1453 438" stroke="#BCE6FF" stroke-opacity="0.72" stroke-width="24" stroke-linecap="round"/>
    <path d="M1419 400L1473 438L1431 490" stroke="#BCE6FF" stroke-opacity="0.72" stroke-width="24" stroke-linecap="round" stroke-linejoin="round"/>
    <path d="M1440 604C1389 660 1298 681 1227 639" stroke="#69B8FF" stroke-opacity="0.88" stroke-width="24" stroke-linecap="round"/>
    <path d="M1261 677L1207 639L1249 587" stroke="#69B8FF" stroke-opacity="0.88" stroke-width="24" stroke-linecap="round" stroke-linejoin="round"/>
  </g>

  <g opacity="0.4">
    <rect x="1575" y="350" width="210" height="118" rx="28" fill="#FFFFFF" fill-opacity="0.10" stroke="#CFEAFF" stroke-opacity="0.28"/>
    <circle cx="1620" cy="409" r="22" fill="#76C7FF" fill-opacity="0.6"/>
    <rect x="1662" y="386" width="84" height="12" rx="6" fill="#EAF7FF" fill-opacity="0.55"/>
    <rect x="1662" y="414" width="62" height="10" rx="5" fill="#EAF7FF" fill-opacity="0.28"/>
  </g>

  <g opacity="0.34">
    <rect x="930" y="690" width="232" height="128" rx="30" fill="#FFFFFF" fill-opacity="0.08" stroke="#CFEAFF" stroke-opacity="0.25"/>
    <rect x="970" y="730" width="70" height="48" rx="12" fill="#5BB7FF" fill-opacity="0.42"/>
    <rect x="1060" y="724" width="64" height="12" rx="6" fill="#EAF7FF" fill-opacity="0.48"/>
    <rect x="1060" y="752" width="44" height="10" rx="5" fill="#EAF7FF" fill-opacity="0.24"/>
  </g>

  <path d="M0 940C270 870 430 1020 690 958C1025 878 1190 1012 1500 944C1690 902 1820 918 1920 960V1080H0V940Z" fill="#04142E" fill-opacity="0.35"/>
</svg>
